<mxfile host="app.diagrams.net" modified="2023-09-06T18:36:42.122Z" agent="Mozilla/5.0 (Macintosh; Intel Mac OS X 10_15_7) AppleWebKit/537.36 (KHTML, like Gecko) Chrome/116.0.0.0 Safari/537.36" version="21.7.2" etag="-kMrG2oL-xwD4CxvaAvz" type="github">
  <diagram name="Страница — 1" id="q5Gg8Sq0WM1Dj2PMlygK">
    <mxGraphModel>
      <root>
        <mxCell id="0" />
        <mxCell id="1" parent="0" />
      </root>
    </mxGraphModel>
  </diagram>
</mxfile>
